<svg width="124" height="124" viewBox="0 0 124 124" fill="none" xmlns="http://www.w3.org/2000/svg">
<circle cx="62" cy="62" r="62" fill="#A5058E"/>
<path d="M16.344 62.56C16.344 59.808 16.856 57.392 17.88 55.312C18.936 53.232 20.36 51.632 22.152 50.512C23.944 49.392 25.944 48.832 28.152 48.832C29.912 48.832 31.512 49.2 32.952 49.936C34.424 50.672 35.576 51.664 36.408 52.912V40.48H44.616V76H36.408V72.16C35.64 73.44 34.536 74.464 33.096 75.232C31.688 76 30.04 76.384 28.152 76.384C25.944 76.384 23.944 75.824 22.152 74.704C20.36 73.552 18.936 71.936 17.88 69.856C16.856 67.744 16.344 65.312 16.344 62.56ZM36.408 62.608C36.408 60.56 35.832 58.944 34.68 57.76C33.56 56.576 32.184 55.984 30.552 55.984C28.92 55.984 27.528 56.576 26.376 57.76C25.256 58.912 24.696 60.512 24.696 62.56C24.696 64.608 25.256 66.24 26.376 67.456C27.528 68.64 28.92 69.232 30.552 69.232C32.184 69.232 33.56 68.64 34.68 67.456C35.832 66.272 36.408 64.656 36.408 62.608ZM75.8021 62.176C75.8021 62.944 75.7541 63.744 75.6581 64.576H57.0821C57.2101 66.24 57.7381 67.52 58.6661 68.416C59.6261 69.28 60.7941 69.712 62.1701 69.712C64.2181 69.712 65.6421 68.848 66.4421 67.12H75.1781C74.7301 68.88 73.9141 70.464 72.7301 71.872C71.5781 73.28 70.1221 74.384 68.3621 75.184C66.6021 75.984 64.6341 76.384 62.4581 76.384C59.8341 76.384 57.4981 75.824 55.4501 74.704C53.4021 73.584 51.8021 71.984 50.6501 69.904C49.4981 67.824 48.9221 65.392 48.9221 62.608C48.9221 59.824 49.4821 57.392 50.6021 55.312C51.7541 53.232 53.3541 51.632 55.4021 50.512C57.4501 49.392 59.8021 48.832 62.4581 48.832C65.0501 48.832 67.3541 49.376 69.3701 50.464C71.3861 51.552 72.9541 53.104 74.0741 55.12C75.2261 57.136 75.8021 59.488 75.8021 62.176ZM67.4021 60.016C67.4021 58.608 66.9221 57.488 65.9621 56.656C65.0021 55.824 63.8021 55.408 62.3621 55.408C60.9861 55.408 59.8181 55.808 58.8581 56.608C57.9301 57.408 57.3541 58.544 57.1301 60.016H67.4021ZM92.1803 68.32L97.9883 49.216H106.724L97.2203 76H87.0923L77.5883 49.216H86.3723L92.1803 68.32Z" fill="white"/>
</svg>
